<mxfile host="app.diagrams.net" agent="Mozilla/5.0 (Windows NT 10.0; Win64; x64) AppleWebKit/537.36 (KHTML, like Gecko) Chrome/129.0.0.0 Safari/537.36" version="24.7.17">
  <diagram name="Page-1" id="2cc2dc42-3aac-f2a9-1cec-7a8b7cbee084">
    <mxGraphModel dx="1688" dy="654" grid="1" gridSize="10" guides="1" tooltips="1" connect="1" arrows="1" fold="1" page="1" pageScale="1" pageWidth="1100" pageHeight="850" background="#ffffff" math="0" shadow="0">
      <root>
        <mxCell id="0" />
        <mxCell id="1" parent="0" />
        <mxCell id="_UectSmw2VgIXvlXQakz-1" value="" style="rounded=0;whiteSpace=wrap;html=1;" vertex="1" parent="1">
          <mxGeometry x="40" y="40" width="440" height="800" as="geometry" />
        </mxCell>
        <mxCell id="_UectSmw2VgIXvlXQakz-2" value="" style="rounded=0;whiteSpace=wrap;html=1;fillColor=#0090FF;fontColor=#ffffff;strokeColor=#005180;fillStyle=solid;" vertex="1" parent="1">
          <mxGeometry x="40" y="40" width="440" height="70" as="geometry" />
        </mxCell>
        <mxCell id="_UectSmw2VgIXvlXQakz-3" value="&lt;font style=&quot;font-size: 21px;&quot;&gt;Welcome to Getaways&lt;/font&gt;" style="text;html=1;align=center;verticalAlign=middle;whiteSpace=wrap;rounded=0;" vertex="1" parent="1">
          <mxGeometry x="140" y="180" width="240" height="30" as="geometry" />
        </mxCell>
        <mxCell id="_UectSmw2VgIXvlXQakz-4" value="&amp;nbsp; &amp;nbsp; &amp;nbsp;Email" style="rounded=0;whiteSpace=wrap;html=1;align=left;" vertex="1" parent="1">
          <mxGeometry x="150" y="310" width="220" height="40" as="geometry" />
        </mxCell>
        <mxCell id="_UectSmw2VgIXvlXQakz-6" value="&amp;nbsp; &amp;nbsp; &amp;nbsp;Password" style="rounded=0;whiteSpace=wrap;html=1;align=left;" vertex="1" parent="1">
          <mxGeometry x="150" y="370" width="220" height="40" as="geometry" />
        </mxCell>
        <mxCell id="_UectSmw2VgIXvlXQakz-7" value="Login" style="rounded=1;whiteSpace=wrap;html=1;" vertex="1" parent="1">
          <mxGeometry x="150" y="470" width="100" height="40" as="geometry" />
        </mxCell>
        <mxCell id="_UectSmw2VgIXvlXQakz-8" value="Sign Up" style="rounded=1;whiteSpace=wrap;html=1;" vertex="1" parent="1">
          <mxGeometry x="270" y="470" width="100" height="40" as="geometry" />
        </mxCell>
        <mxCell id="_UectSmw2VgIXvlXQakz-9" value="" style="endArrow=classic;html=1;rounded=0;strokeWidth=8;" edge="1" parent="1">
          <mxGeometry width="50" height="50" relative="1" as="geometry">
            <mxPoint x="490" y="440" as="sourcePoint" />
            <mxPoint x="590" y="440" as="targetPoint" />
          </mxGeometry>
        </mxCell>
        <mxCell id="_UectSmw2VgIXvlXQakz-10" value="" style="rounded=0;whiteSpace=wrap;html=1;" vertex="1" parent="1">
          <mxGeometry x="600" y="40" width="440" height="800" as="geometry" />
        </mxCell>
        <mxCell id="_UectSmw2VgIXvlXQakz-11" value="" style="rounded=0;whiteSpace=wrap;html=1;fillColor=#0090FF;fontColor=#ffffff;strokeColor=#005180;fillStyle=solid;" vertex="1" parent="1">
          <mxGeometry x="600" y="40" width="440" height="70" as="geometry" />
        </mxCell>
        <mxCell id="_UectSmw2VgIXvlXQakz-12" value="" style="rounded=1;whiteSpace=wrap;html=1;" vertex="1" parent="1">
          <mxGeometry x="650" y="160" width="350" height="60" as="geometry" />
        </mxCell>
        <mxCell id="_UectSmw2VgIXvlXQakz-13" value="" style="rounded=1;whiteSpace=wrap;html=1;" vertex="1" parent="1">
          <mxGeometry x="650" y="240" width="350" height="60" as="geometry" />
        </mxCell>
        <mxCell id="_UectSmw2VgIXvlXQakz-14" value="" style="rounded=1;whiteSpace=wrap;html=1;" vertex="1" parent="1">
          <mxGeometry x="650" y="320" width="350" height="60" as="geometry" />
        </mxCell>
        <mxCell id="_UectSmw2VgIXvlXQakz-15" value="Vacation Name" style="text;html=1;align=center;verticalAlign=middle;whiteSpace=wrap;rounded=0;" vertex="1" parent="1">
          <mxGeometry x="660" y="175" width="140" height="30" as="geometry" />
        </mxCell>
        <mxCell id="_UectSmw2VgIXvlXQakz-16" value="Vacation Name" style="text;html=1;align=center;verticalAlign=middle;whiteSpace=wrap;rounded=0;" vertex="1" parent="1">
          <mxGeometry x="660" y="255" width="140" height="30" as="geometry" />
        </mxCell>
        <mxCell id="_UectSmw2VgIXvlXQakz-17" value="Vacation Name" style="text;html=1;align=center;verticalAlign=middle;whiteSpace=wrap;rounded=0;" vertex="1" parent="1">
          <mxGeometry x="660" y="335" width="140" height="30" as="geometry" />
        </mxCell>
        <mxCell id="_UectSmw2VgIXvlXQakz-18" value="01/01/2000-01/02/2000" style="text;html=1;align=center;verticalAlign=middle;whiteSpace=wrap;rounded=0;" vertex="1" parent="1">
          <mxGeometry x="860" y="175" width="90" height="30" as="geometry" />
        </mxCell>
        <mxCell id="_UectSmw2VgIXvlXQakz-19" value="01/01/2000-01/02/2000" style="text;html=1;align=center;verticalAlign=middle;whiteSpace=wrap;rounded=0;" vertex="1" parent="1">
          <mxGeometry x="860" y="255" width="90" height="30" as="geometry" />
        </mxCell>
        <mxCell id="_UectSmw2VgIXvlXQakz-20" value="01/01/2000-01/02/2000" style="text;html=1;align=center;verticalAlign=middle;whiteSpace=wrap;rounded=0;" vertex="1" parent="1">
          <mxGeometry x="860" y="335" width="90" height="30" as="geometry" />
        </mxCell>
        <mxCell id="_UectSmw2VgIXvlXQakz-22" value="" style="shape=waypoint;sketch=0;fillStyle=solid;size=6;pointerEvents=1;points=[];fillColor=none;resizable=0;rotatable=0;perimeter=centerPerimeter;snapToPoint=1;" vertex="1" parent="1">
          <mxGeometry x="950" y="160" width="20" height="20" as="geometry" />
        </mxCell>
        <mxCell id="_UectSmw2VgIXvlXQakz-23" value="" style="shape=waypoint;sketch=0;fillStyle=solid;size=6;pointerEvents=1;points=[];fillColor=none;resizable=0;rotatable=0;perimeter=centerPerimeter;snapToPoint=1;" vertex="1" parent="1">
          <mxGeometry x="960" y="160" width="20" height="20" as="geometry" />
        </mxCell>
        <mxCell id="_UectSmw2VgIXvlXQakz-24" value="" style="shape=waypoint;sketch=0;fillStyle=solid;size=6;pointerEvents=1;points=[];fillColor=none;resizable=0;rotatable=0;perimeter=centerPerimeter;snapToPoint=1;" vertex="1" parent="1">
          <mxGeometry x="970" y="160" width="20" height="20" as="geometry" />
        </mxCell>
        <mxCell id="_UectSmw2VgIXvlXQakz-25" value="" style="shape=waypoint;sketch=0;fillStyle=solid;size=6;pointerEvents=1;points=[];fillColor=none;resizable=0;rotatable=0;perimeter=centerPerimeter;snapToPoint=1;" vertex="1" parent="1">
          <mxGeometry x="950" y="240" width="20" height="20" as="geometry" />
        </mxCell>
        <mxCell id="_UectSmw2VgIXvlXQakz-26" value="" style="shape=waypoint;sketch=0;fillStyle=solid;size=6;pointerEvents=1;points=[];fillColor=none;resizable=0;rotatable=0;perimeter=centerPerimeter;snapToPoint=1;" vertex="1" parent="1">
          <mxGeometry x="960" y="240" width="20" height="20" as="geometry" />
        </mxCell>
        <mxCell id="_UectSmw2VgIXvlXQakz-27" value="" style="shape=waypoint;sketch=0;fillStyle=solid;size=6;pointerEvents=1;points=[];fillColor=none;resizable=0;rotatable=0;perimeter=centerPerimeter;snapToPoint=1;" vertex="1" parent="1">
          <mxGeometry x="970" y="240" width="20" height="20" as="geometry" />
        </mxCell>
        <mxCell id="_UectSmw2VgIXvlXQakz-28" value="" style="shape=waypoint;sketch=0;fillStyle=solid;size=6;pointerEvents=1;points=[];fillColor=none;resizable=0;rotatable=0;perimeter=centerPerimeter;snapToPoint=1;" vertex="1" parent="1">
          <mxGeometry x="950" y="320" width="20" height="20" as="geometry" />
        </mxCell>
        <mxCell id="_UectSmw2VgIXvlXQakz-29" value="" style="shape=waypoint;sketch=0;fillStyle=solid;size=6;pointerEvents=1;points=[];fillColor=none;resizable=0;rotatable=0;perimeter=centerPerimeter;snapToPoint=1;" vertex="1" parent="1">
          <mxGeometry x="960" y="320" width="20" height="20" as="geometry" />
        </mxCell>
        <mxCell id="_UectSmw2VgIXvlXQakz-30" value="" style="shape=waypoint;sketch=0;fillStyle=solid;size=6;pointerEvents=1;points=[];fillColor=none;resizable=0;rotatable=0;perimeter=centerPerimeter;snapToPoint=1;" vertex="1" parent="1">
          <mxGeometry x="970" y="320" width="20" height="20" as="geometry" />
        </mxCell>
        <mxCell id="_UectSmw2VgIXvlXQakz-31" value="+ Add Vacation" style="rounded=1;whiteSpace=wrap;html=1;" vertex="1" parent="1">
          <mxGeometry x="840" y="750" width="160" height="50" as="geometry" />
        </mxCell>
        <mxCell id="_UectSmw2VgIXvlXQakz-32" value="My Vacations" style="text;html=1;align=center;verticalAlign=middle;whiteSpace=wrap;rounded=0;" vertex="1" parent="1">
          <mxGeometry x="620" y="60" width="140" height="30" as="geometry" />
        </mxCell>
        <mxCell id="_UectSmw2VgIXvlXQakz-36" value="Search" style="text;html=1;align=center;verticalAlign=middle;whiteSpace=wrap;rounded=0;" vertex="1" parent="1">
          <mxGeometry x="860" y="60" width="60" height="30" as="geometry" />
        </mxCell>
        <mxCell id="_UectSmw2VgIXvlXQakz-37" value="Logout" style="text;html=1;align=center;verticalAlign=middle;whiteSpace=wrap;rounded=0;" vertex="1" parent="1">
          <mxGeometry x="910" y="60" width="60" height="30" as="geometry" />
        </mxCell>
        <mxCell id="_UectSmw2VgIXvlXQakz-38" value="Overflow menu" style="text;html=1;align=center;verticalAlign=middle;whiteSpace=wrap;rounded=0;" vertex="1" parent="1">
          <mxGeometry x="960" y="60" width="60" height="30" as="geometry" />
        </mxCell>
        <mxCell id="_UectSmw2VgIXvlXQakz-39" value="" style="rounded=0;whiteSpace=wrap;html=1;" vertex="1" parent="1">
          <mxGeometry x="1160" y="40" width="440" height="800" as="geometry" />
        </mxCell>
        <mxCell id="_UectSmw2VgIXvlXQakz-40" value="" style="rounded=0;whiteSpace=wrap;html=1;fillColor=#0090FF;fontColor=#ffffff;strokeColor=#005180;fillStyle=solid;" vertex="1" parent="1">
          <mxGeometry x="1160" y="40" width="440" height="70" as="geometry" />
        </mxCell>
        <mxCell id="_UectSmw2VgIXvlXQakz-46" value="Title:" style="text;html=1;align=center;verticalAlign=middle;whiteSpace=wrap;rounded=0;" vertex="1" parent="1">
          <mxGeometry x="1190" y="160" width="140" height="30" as="geometry" />
        </mxCell>
        <mxCell id="_UectSmw2VgIXvlXQakz-59" value="+ Add Excursion" style="rounded=1;whiteSpace=wrap;html=1;" vertex="1" parent="1">
          <mxGeometry x="1410" y="750" width="160" height="50" as="geometry" />
        </mxCell>
        <mxCell id="_UectSmw2VgIXvlXQakz-60" value="Vacation Details" style="text;html=1;align=center;verticalAlign=middle;whiteSpace=wrap;rounded=0;" vertex="1" parent="1">
          <mxGeometry x="1190" y="60" width="140" height="30" as="geometry" />
        </mxCell>
        <mxCell id="_UectSmw2VgIXvlXQakz-61" value="Home" style="text;html=1;align=center;verticalAlign=middle;whiteSpace=wrap;rounded=0;" vertex="1" parent="1">
          <mxGeometry x="1430" y="60" width="60" height="30" as="geometry" />
        </mxCell>
        <mxCell id="_UectSmw2VgIXvlXQakz-62" value="Logout" style="text;html=1;align=center;verticalAlign=middle;whiteSpace=wrap;rounded=0;" vertex="1" parent="1">
          <mxGeometry x="1480" y="60" width="60" height="30" as="geometry" />
        </mxCell>
        <mxCell id="_UectSmw2VgIXvlXQakz-63" value="Overflow menu" style="text;html=1;align=center;verticalAlign=middle;whiteSpace=wrap;rounded=0;" vertex="1" parent="1">
          <mxGeometry x="1530" y="60" width="60" height="30" as="geometry" />
        </mxCell>
        <mxCell id="_UectSmw2VgIXvlXQakz-64" value="Hotel:" style="text;html=1;align=center;verticalAlign=middle;whiteSpace=wrap;rounded=0;" vertex="1" parent="1">
          <mxGeometry x="1190" y="230" width="140" height="30" as="geometry" />
        </mxCell>
        <mxCell id="_UectSmw2VgIXvlXQakz-65" value="Start Date:" style="text;html=1;align=center;verticalAlign=middle;whiteSpace=wrap;rounded=0;" vertex="1" parent="1">
          <mxGeometry x="1190" y="300" width="140" height="30" as="geometry" />
        </mxCell>
        <mxCell id="_UectSmw2VgIXvlXQakz-66" value="End Date:" style="text;html=1;align=center;verticalAlign=middle;whiteSpace=wrap;rounded=0;" vertex="1" parent="1">
          <mxGeometry x="1190" y="370" width="140" height="30" as="geometry" />
        </mxCell>
        <mxCell id="_UectSmw2VgIXvlXQakz-68" value="&amp;nbsp; &amp;nbsp; Enter Vacation Title" style="rounded=0;whiteSpace=wrap;html=1;align=left;" vertex="1" parent="1">
          <mxGeometry x="1300" y="155" width="250" height="50" as="geometry" />
        </mxCell>
        <mxCell id="_UectSmw2VgIXvlXQakz-69" value="&amp;nbsp; &amp;nbsp; Enter Hotel Name" style="rounded=0;whiteSpace=wrap;html=1;align=left;" vertex="1" parent="1">
          <mxGeometry x="1300" y="225" width="250" height="50" as="geometry" />
        </mxCell>
        <mxCell id="_UectSmw2VgIXvlXQakz-70" value="Pick a date" style="rounded=1;whiteSpace=wrap;html=1;" vertex="1" parent="1">
          <mxGeometry x="1300" y="300" width="120" height="35" as="geometry" />
        </mxCell>
        <mxCell id="_UectSmw2VgIXvlXQakz-71" value="Pick a date" style="rounded=1;whiteSpace=wrap;html=1;" vertex="1" parent="1">
          <mxGeometry x="1300" y="367.5" width="120" height="35" as="geometry" />
        </mxCell>
        <mxCell id="_UectSmw2VgIXvlXQakz-72" value="Current Excursions:&amp;nbsp;" style="text;html=1;align=center;verticalAlign=middle;whiteSpace=wrap;rounded=0;" vertex="1" parent="1">
          <mxGeometry x="1200" y="490" width="170" height="30" as="geometry" />
        </mxCell>
        <mxCell id="_UectSmw2VgIXvlXQakz-73" value="" style="rounded=1;whiteSpace=wrap;html=1;" vertex="1" parent="1">
          <mxGeometry x="1215" y="535" width="350" height="60" as="geometry" />
        </mxCell>
        <mxCell id="_UectSmw2VgIXvlXQakz-74" value="Excursion Name" style="text;html=1;align=center;verticalAlign=middle;whiteSpace=wrap;rounded=0;" vertex="1" parent="1">
          <mxGeometry x="1215" y="535" width="140" height="30" as="geometry" />
        </mxCell>
        <mxCell id="_UectSmw2VgIXvlXQakz-75" value="01/01/2000" style="text;html=1;align=center;verticalAlign=middle;whiteSpace=wrap;rounded=0;" vertex="1" parent="1">
          <mxGeometry x="1470" y="535" width="70" height="30" as="geometry" />
        </mxCell>
        <mxCell id="_UectSmw2VgIXvlXQakz-76" value="" style="endArrow=classic;html=1;rounded=0;strokeWidth=8;" edge="1" parent="1">
          <mxGeometry width="50" height="50" relative="1" as="geometry">
            <mxPoint x="1610" y="449.29" as="sourcePoint" />
            <mxPoint x="1710" y="449.29" as="targetPoint" />
          </mxGeometry>
        </mxCell>
        <mxCell id="_UectSmw2VgIXvlXQakz-77" value="Save" style="rounded=1;whiteSpace=wrap;html=1;" vertex="1" parent="1">
          <mxGeometry x="1190" y="430" width="90" height="40" as="geometry" />
        </mxCell>
        <mxCell id="_UectSmw2VgIXvlXQakz-78" value="Delete" style="rounded=1;whiteSpace=wrap;html=1;" vertex="1" parent="1">
          <mxGeometry x="1290" y="430" width="90" height="40" as="geometry" />
        </mxCell>
        <mxCell id="_UectSmw2VgIXvlXQakz-79" value="Alert" style="rounded=1;whiteSpace=wrap;html=1;" vertex="1" parent="1">
          <mxGeometry x="1390" y="430" width="90" height="40" as="geometry" />
        </mxCell>
        <mxCell id="_UectSmw2VgIXvlXQakz-80" value="Share" style="rounded=1;whiteSpace=wrap;html=1;" vertex="1" parent="1">
          <mxGeometry x="1490" y="430" width="90" height="40" as="geometry" />
        </mxCell>
        <mxCell id="_UectSmw2VgIXvlXQakz-81" value="" style="rounded=0;whiteSpace=wrap;html=1;" vertex="1" parent="1">
          <mxGeometry x="1710" y="40" width="440" height="800" as="geometry" />
        </mxCell>
        <mxCell id="_UectSmw2VgIXvlXQakz-82" value="" style="rounded=0;whiteSpace=wrap;html=1;fillColor=#0090FF;fontColor=#ffffff;strokeColor=#005180;fillStyle=solid;" vertex="1" parent="1">
          <mxGeometry x="1710" y="40" width="440" height="70" as="geometry" />
        </mxCell>
        <mxCell id="_UectSmw2VgIXvlXQakz-83" value="Title:" style="text;html=1;align=center;verticalAlign=middle;whiteSpace=wrap;rounded=0;" vertex="1" parent="1">
          <mxGeometry x="1740" y="160" width="140" height="30" as="geometry" />
        </mxCell>
        <mxCell id="_UectSmw2VgIXvlXQakz-84" value="Set Alert" style="rounded=1;whiteSpace=wrap;html=1;" vertex="1" parent="1">
          <mxGeometry x="1960" y="750" width="160" height="50" as="geometry" />
        </mxCell>
        <mxCell id="_UectSmw2VgIXvlXQakz-85" value="Vacation Alert" style="text;html=1;align=center;verticalAlign=middle;whiteSpace=wrap;rounded=0;" vertex="1" parent="1">
          <mxGeometry x="1740" y="60" width="140" height="30" as="geometry" />
        </mxCell>
        <mxCell id="_UectSmw2VgIXvlXQakz-86" value="Home" style="text;html=1;align=center;verticalAlign=middle;whiteSpace=wrap;rounded=0;" vertex="1" parent="1">
          <mxGeometry x="1980" y="60" width="60" height="30" as="geometry" />
        </mxCell>
        <mxCell id="_UectSmw2VgIXvlXQakz-87" value="Logout" style="text;html=1;align=center;verticalAlign=middle;whiteSpace=wrap;rounded=0;" vertex="1" parent="1">
          <mxGeometry x="2030" y="60" width="60" height="30" as="geometry" />
        </mxCell>
        <mxCell id="_UectSmw2VgIXvlXQakz-88" value="Overflow menu" style="text;html=1;align=center;verticalAlign=middle;whiteSpace=wrap;rounded=0;" vertex="1" parent="1">
          <mxGeometry x="2080" y="60" width="60" height="30" as="geometry" />
        </mxCell>
        <mxCell id="_UectSmw2VgIXvlXQakz-89" value="Hotel:" style="text;html=1;align=center;verticalAlign=middle;whiteSpace=wrap;rounded=0;" vertex="1" parent="1">
          <mxGeometry x="1740" y="230" width="140" height="30" as="geometry" />
        </mxCell>
        <mxCell id="_UectSmw2VgIXvlXQakz-90" value="Start Date:" style="text;html=1;align=center;verticalAlign=middle;whiteSpace=wrap;rounded=0;" vertex="1" parent="1">
          <mxGeometry x="1740" y="300" width="140" height="30" as="geometry" />
        </mxCell>
        <mxCell id="_UectSmw2VgIXvlXQakz-91" value="End Date:" style="text;html=1;align=center;verticalAlign=middle;whiteSpace=wrap;rounded=0;" vertex="1" parent="1">
          <mxGeometry x="1740" y="370" width="140" height="30" as="geometry" />
        </mxCell>
        <mxCell id="_UectSmw2VgIXvlXQakz-96" value="Excursions:&amp;nbsp;" style="text;html=1;align=center;verticalAlign=middle;whiteSpace=wrap;rounded=0;" vertex="1" parent="1">
          <mxGeometry x="1735" y="470" width="170" height="30" as="geometry" />
        </mxCell>
        <mxCell id="_UectSmw2VgIXvlXQakz-97" value="" style="rounded=1;whiteSpace=wrap;html=1;" vertex="1" parent="1">
          <mxGeometry x="1755" y="520" width="350" height="60" as="geometry" />
        </mxCell>
        <mxCell id="_UectSmw2VgIXvlXQakz-98" value="Excursion Name" style="text;html=1;align=center;verticalAlign=middle;whiteSpace=wrap;rounded=0;" vertex="1" parent="1">
          <mxGeometry x="1765" y="535" width="140" height="30" as="geometry" />
        </mxCell>
        <mxCell id="_UectSmw2VgIXvlXQakz-99" value="01/01/2000" style="text;html=1;align=center;verticalAlign=middle;whiteSpace=wrap;rounded=0;" vertex="1" parent="1">
          <mxGeometry x="2020" y="535" width="70" height="30" as="geometry" />
        </mxCell>
        <mxCell id="_UectSmw2VgIXvlXQakz-104" value="Vacation Name" style="text;html=1;align=center;verticalAlign=middle;whiteSpace=wrap;rounded=0;" vertex="1" parent="1">
          <mxGeometry x="1880" y="165" width="150" height="30" as="geometry" />
        </mxCell>
        <mxCell id="_UectSmw2VgIXvlXQakz-105" value="Hotel Name" style="text;html=1;align=center;verticalAlign=middle;whiteSpace=wrap;rounded=0;" vertex="1" parent="1">
          <mxGeometry x="1880" y="235" width="150" height="30" as="geometry" />
        </mxCell>
        <mxCell id="_UectSmw2VgIXvlXQakz-106" value="01/01/2000" style="text;html=1;align=center;verticalAlign=middle;whiteSpace=wrap;rounded=0;" vertex="1" parent="1">
          <mxGeometry x="1880" y="310" width="150" height="30" as="geometry" />
        </mxCell>
        <mxCell id="_UectSmw2VgIXvlXQakz-107" value="01/02/2000" style="text;html=1;align=center;verticalAlign=middle;whiteSpace=wrap;rounded=0;" vertex="1" parent="1">
          <mxGeometry x="1880" y="370" width="150" height="30" as="geometry" />
        </mxCell>
        <mxCell id="_UectSmw2VgIXvlXQakz-108" value="" style="rounded=0;whiteSpace=wrap;html=1;" vertex="1" parent="1">
          <mxGeometry x="850" y="890" width="440" height="800" as="geometry" />
        </mxCell>
        <mxCell id="_UectSmw2VgIXvlXQakz-109" value="" style="rounded=0;whiteSpace=wrap;html=1;fillColor=#0090FF;fontColor=#ffffff;strokeColor=#005180;fillStyle=solid;" vertex="1" parent="1">
          <mxGeometry x="850" y="890" width="440" height="70" as="geometry" />
        </mxCell>
        <mxCell id="_UectSmw2VgIXvlXQakz-110" value="Title:" style="text;html=1;align=center;verticalAlign=middle;whiteSpace=wrap;rounded=0;" vertex="1" parent="1">
          <mxGeometry x="880" y="1010" width="140" height="30" as="geometry" />
        </mxCell>
        <mxCell id="_UectSmw2VgIXvlXQakz-111" value="Share" style="rounded=1;whiteSpace=wrap;html=1;" vertex="1" parent="1">
          <mxGeometry x="1100" y="1600" width="160" height="50" as="geometry" />
        </mxCell>
        <mxCell id="_UectSmw2VgIXvlXQakz-112" value="Share Vacation" style="text;html=1;align=center;verticalAlign=middle;whiteSpace=wrap;rounded=0;" vertex="1" parent="1">
          <mxGeometry x="880" y="910" width="140" height="30" as="geometry" />
        </mxCell>
        <mxCell id="_UectSmw2VgIXvlXQakz-113" value="Home" style="text;html=1;align=center;verticalAlign=middle;whiteSpace=wrap;rounded=0;" vertex="1" parent="1">
          <mxGeometry x="1120" y="910" width="60" height="30" as="geometry" />
        </mxCell>
        <mxCell id="_UectSmw2VgIXvlXQakz-114" value="Logout" style="text;html=1;align=center;verticalAlign=middle;whiteSpace=wrap;rounded=0;" vertex="1" parent="1">
          <mxGeometry x="1170" y="910" width="60" height="30" as="geometry" />
        </mxCell>
        <mxCell id="_UectSmw2VgIXvlXQakz-115" value="Overflow menu" style="text;html=1;align=center;verticalAlign=middle;whiteSpace=wrap;rounded=0;" vertex="1" parent="1">
          <mxGeometry x="1220" y="910" width="60" height="30" as="geometry" />
        </mxCell>
        <mxCell id="_UectSmw2VgIXvlXQakz-116" value="Hotel:" style="text;html=1;align=center;verticalAlign=middle;whiteSpace=wrap;rounded=0;" vertex="1" parent="1">
          <mxGeometry x="880" y="1080" width="140" height="30" as="geometry" />
        </mxCell>
        <mxCell id="_UectSmw2VgIXvlXQakz-117" value="Start Date:" style="text;html=1;align=center;verticalAlign=middle;whiteSpace=wrap;rounded=0;" vertex="1" parent="1">
          <mxGeometry x="880" y="1150" width="140" height="30" as="geometry" />
        </mxCell>
        <mxCell id="_UectSmw2VgIXvlXQakz-118" value="End Date:" style="text;html=1;align=center;verticalAlign=middle;whiteSpace=wrap;rounded=0;" vertex="1" parent="1">
          <mxGeometry x="880" y="1220" width="140" height="30" as="geometry" />
        </mxCell>
        <mxCell id="_UectSmw2VgIXvlXQakz-119" value="Excursions:&amp;nbsp;" style="text;html=1;align=center;verticalAlign=middle;whiteSpace=wrap;rounded=0;" vertex="1" parent="1">
          <mxGeometry x="865" y="1270" width="170" height="30" as="geometry" />
        </mxCell>
        <mxCell id="_UectSmw2VgIXvlXQakz-120" value="" style="rounded=1;whiteSpace=wrap;html=1;" vertex="1" parent="1">
          <mxGeometry x="905" y="1310" width="350" height="60" as="geometry" />
        </mxCell>
        <mxCell id="_UectSmw2VgIXvlXQakz-121" value="Excursion Name" style="text;html=1;align=center;verticalAlign=middle;whiteSpace=wrap;rounded=0;" vertex="1" parent="1">
          <mxGeometry x="900" y="1325" width="140" height="30" as="geometry" />
        </mxCell>
        <mxCell id="_UectSmw2VgIXvlXQakz-122" value="01/01/2000" style="text;html=1;align=center;verticalAlign=middle;whiteSpace=wrap;rounded=0;" vertex="1" parent="1">
          <mxGeometry x="1160" y="1325" width="70" height="30" as="geometry" />
        </mxCell>
        <mxCell id="_UectSmw2VgIXvlXQakz-123" value="Vacation Name" style="text;html=1;align=center;verticalAlign=middle;whiteSpace=wrap;rounded=0;" vertex="1" parent="1">
          <mxGeometry x="1020" y="1015" width="150" height="30" as="geometry" />
        </mxCell>
        <mxCell id="_UectSmw2VgIXvlXQakz-124" value="Hotel Name" style="text;html=1;align=center;verticalAlign=middle;whiteSpace=wrap;rounded=0;" vertex="1" parent="1">
          <mxGeometry x="1020" y="1085" width="150" height="30" as="geometry" />
        </mxCell>
        <mxCell id="_UectSmw2VgIXvlXQakz-125" value="01/01/2000" style="text;html=1;align=center;verticalAlign=middle;whiteSpace=wrap;rounded=0;" vertex="1" parent="1">
          <mxGeometry x="1020" y="1160" width="150" height="30" as="geometry" />
        </mxCell>
        <mxCell id="_UectSmw2VgIXvlXQakz-126" value="01/02/2000" style="text;html=1;align=center;verticalAlign=middle;whiteSpace=wrap;rounded=0;" vertex="1" parent="1">
          <mxGeometry x="1020" y="1220" width="150" height="30" as="geometry" />
        </mxCell>
        <mxCell id="_UectSmw2VgIXvlXQakz-127" value="Enter your message below:" style="text;html=1;align=center;verticalAlign=middle;whiteSpace=wrap;rounded=0;" vertex="1" parent="1">
          <mxGeometry x="905" y="1400" width="165" height="30" as="geometry" />
        </mxCell>
        <mxCell id="_UectSmw2VgIXvlXQakz-128" value="" style="rounded=0;whiteSpace=wrap;html=1;" vertex="1" parent="1">
          <mxGeometry x="920" y="1440" width="310" height="140" as="geometry" />
        </mxCell>
        <mxCell id="_UectSmw2VgIXvlXQakz-130" value="" style="endArrow=classic;html=1;rounded=0;strokeWidth=8;" edge="1" parent="1">
          <mxGeometry width="50" height="50" relative="1" as="geometry">
            <mxPoint x="1050" y="439.5" as="sourcePoint" />
            <mxPoint x="1150" y="439.5" as="targetPoint" />
          </mxGeometry>
        </mxCell>
        <mxCell id="_UectSmw2VgIXvlXQakz-131" value="" style="endArrow=classic;html=1;rounded=0;strokeWidth=8;" edge="1" parent="1">
          <mxGeometry width="50" height="50" relative="1" as="geometry">
            <mxPoint x="1309" y="850" as="sourcePoint" />
            <mxPoint x="1240" y="880" as="targetPoint" />
          </mxGeometry>
        </mxCell>
        <mxCell id="_UectSmw2VgIXvlXQakz-132" value="" style="rounded=0;whiteSpace=wrap;html=1;" vertex="1" parent="1">
          <mxGeometry x="1450" y="890" width="440" height="800" as="geometry" />
        </mxCell>
        <mxCell id="_UectSmw2VgIXvlXQakz-133" value="" style="rounded=0;whiteSpace=wrap;html=1;fillColor=#0090FF;fontColor=#ffffff;strokeColor=#005180;fillStyle=solid;" vertex="1" parent="1">
          <mxGeometry x="1450" y="890" width="440" height="70" as="geometry" />
        </mxCell>
        <mxCell id="_UectSmw2VgIXvlXQakz-134" value="Title:" style="text;html=1;align=center;verticalAlign=middle;whiteSpace=wrap;rounded=0;" vertex="1" parent="1">
          <mxGeometry x="1480" y="1010" width="140" height="30" as="geometry" />
        </mxCell>
        <mxCell id="_UectSmw2VgIXvlXQakz-136" value="Excursion Details" style="text;html=1;align=center;verticalAlign=middle;whiteSpace=wrap;rounded=0;" vertex="1" parent="1">
          <mxGeometry x="1480" y="910" width="140" height="30" as="geometry" />
        </mxCell>
        <mxCell id="_UectSmw2VgIXvlXQakz-137" value="Home" style="text;html=1;align=center;verticalAlign=middle;whiteSpace=wrap;rounded=0;" vertex="1" parent="1">
          <mxGeometry x="1720" y="910" width="60" height="30" as="geometry" />
        </mxCell>
        <mxCell id="_UectSmw2VgIXvlXQakz-138" value="Logout" style="text;html=1;align=center;verticalAlign=middle;whiteSpace=wrap;rounded=0;" vertex="1" parent="1">
          <mxGeometry x="1770" y="910" width="60" height="30" as="geometry" />
        </mxCell>
        <mxCell id="_UectSmw2VgIXvlXQakz-139" value="Overflow menu" style="text;html=1;align=center;verticalAlign=middle;whiteSpace=wrap;rounded=0;" vertex="1" parent="1">
          <mxGeometry x="1820" y="910" width="60" height="30" as="geometry" />
        </mxCell>
        <mxCell id="_UectSmw2VgIXvlXQakz-141" value="Date:" style="text;html=1;align=center;verticalAlign=middle;whiteSpace=wrap;rounded=0;" vertex="1" parent="1">
          <mxGeometry x="1480" y="1080" width="140" height="30" as="geometry" />
        </mxCell>
        <mxCell id="_UectSmw2VgIXvlXQakz-143" value="&amp;nbsp; &amp;nbsp; Enter Vacation Title" style="rounded=0;whiteSpace=wrap;html=1;align=left;" vertex="1" parent="1">
          <mxGeometry x="1590" y="1005" width="250" height="50" as="geometry" />
        </mxCell>
        <mxCell id="_UectSmw2VgIXvlXQakz-146" value="Pick a date" style="rounded=1;whiteSpace=wrap;html=1;" vertex="1" parent="1">
          <mxGeometry x="1590" y="1080" width="120" height="35" as="geometry" />
        </mxCell>
        <mxCell id="_UectSmw2VgIXvlXQakz-151" value="Save" style="rounded=1;whiteSpace=wrap;html=1;" vertex="1" parent="1">
          <mxGeometry x="1520" y="1155" width="90" height="40" as="geometry" />
        </mxCell>
        <mxCell id="_UectSmw2VgIXvlXQakz-152" value="Delete" style="rounded=1;whiteSpace=wrap;html=1;" vertex="1" parent="1">
          <mxGeometry x="1625" y="1155" width="90" height="40" as="geometry" />
        </mxCell>
        <mxCell id="_UectSmw2VgIXvlXQakz-153" value="Alert" style="rounded=1;whiteSpace=wrap;html=1;" vertex="1" parent="1">
          <mxGeometry x="1735" y="1155" width="90" height="40" as="geometry" />
        </mxCell>
        <mxCell id="_UectSmw2VgIXvlXQakz-156" value="" style="endArrow=classic;html=1;rounded=0;strokeWidth=8;" edge="1" parent="1">
          <mxGeometry width="50" height="50" relative="1" as="geometry">
            <mxPoint x="1460" y="850" as="sourcePoint" />
            <mxPoint x="1520" y="880" as="targetPoint" />
          </mxGeometry>
        </mxCell>
        <mxCell id="_UectSmw2VgIXvlXQakz-157" value="" style="rounded=0;whiteSpace=wrap;html=1;" vertex="1" parent="1">
          <mxGeometry x="2010" y="890" width="440" height="800" as="geometry" />
        </mxCell>
        <mxCell id="_UectSmw2VgIXvlXQakz-158" value="" style="rounded=0;whiteSpace=wrap;html=1;fillColor=#0090FF;fontColor=#ffffff;strokeColor=#005180;fillStyle=solid;" vertex="1" parent="1">
          <mxGeometry x="2010" y="890" width="440" height="70" as="geometry" />
        </mxCell>
        <mxCell id="_UectSmw2VgIXvlXQakz-159" value="Title:" style="text;html=1;align=center;verticalAlign=middle;whiteSpace=wrap;rounded=0;" vertex="1" parent="1">
          <mxGeometry x="2030" y="1010" width="140" height="30" as="geometry" />
        </mxCell>
        <mxCell id="_UectSmw2VgIXvlXQakz-160" value="Set Alert" style="rounded=1;whiteSpace=wrap;html=1;" vertex="1" parent="1">
          <mxGeometry x="2260" y="1600" width="160" height="50" as="geometry" />
        </mxCell>
        <mxCell id="_UectSmw2VgIXvlXQakz-161" value="Excursion Alert" style="text;html=1;align=center;verticalAlign=middle;whiteSpace=wrap;rounded=0;" vertex="1" parent="1">
          <mxGeometry x="2040" y="910" width="140" height="30" as="geometry" />
        </mxCell>
        <mxCell id="_UectSmw2VgIXvlXQakz-162" value="Home" style="text;html=1;align=center;verticalAlign=middle;whiteSpace=wrap;rounded=0;" vertex="1" parent="1">
          <mxGeometry x="2280" y="910" width="60" height="30" as="geometry" />
        </mxCell>
        <mxCell id="_UectSmw2VgIXvlXQakz-163" value="Logout" style="text;html=1;align=center;verticalAlign=middle;whiteSpace=wrap;rounded=0;" vertex="1" parent="1">
          <mxGeometry x="2330" y="910" width="60" height="30" as="geometry" />
        </mxCell>
        <mxCell id="_UectSmw2VgIXvlXQakz-164" value="Overflow menu" style="text;html=1;align=center;verticalAlign=middle;whiteSpace=wrap;rounded=0;" vertex="1" parent="1">
          <mxGeometry x="2380" y="910" width="60" height="30" as="geometry" />
        </mxCell>
        <mxCell id="_UectSmw2VgIXvlXQakz-166" value="Start Date:" style="text;html=1;align=center;verticalAlign=middle;whiteSpace=wrap;rounded=0;" vertex="1" parent="1">
          <mxGeometry x="2040" y="1070" width="140" height="30" as="geometry" />
        </mxCell>
        <mxCell id="_UectSmw2VgIXvlXQakz-172" value="Excursion Title" style="text;html=1;align=center;verticalAlign=middle;whiteSpace=wrap;rounded=0;" vertex="1" parent="1">
          <mxGeometry x="2180" y="1015" width="150" height="30" as="geometry" />
        </mxCell>
        <mxCell id="_UectSmw2VgIXvlXQakz-174" value="01/01/2000" style="text;html=1;align=center;verticalAlign=middle;whiteSpace=wrap;rounded=0;" vertex="1" parent="1">
          <mxGeometry x="2170" y="1070" width="150" height="30" as="geometry" />
        </mxCell>
        <mxCell id="_UectSmw2VgIXvlXQakz-176" value="" style="endArrow=classic;html=1;rounded=0;strokeWidth=8;" edge="1" parent="1">
          <mxGeometry width="50" height="50" relative="1" as="geometry">
            <mxPoint x="1900" y="1289.33" as="sourcePoint" />
            <mxPoint x="2000" y="1289.33" as="targetPoint" />
          </mxGeometry>
        </mxCell>
      </root>
    </mxGraphModel>
  </diagram>
</mxfile>
